<svg width="20" height="20" viewBox="0 0 20 20" fill="none" xmlns="http://www.w3.org/2000/svg">
<path d="M4.34066 10.8333H13.649L9.58232 14.9C9.25732 15.225 9.25732 15.7583 9.58232 16.0833C9.90732 16.4083 10.4323 16.4083 10.7573 16.0833L16.249 10.5917C16.574 10.2667 16.574 9.74165 16.249 9.41665L10.7657 3.91665C10.61 3.76061 10.3986 3.67291 10.1782 3.67291C9.95773 3.67291 9.74635 3.76061 9.59066 3.91665C9.26566 4.24165 9.26566 4.76665 9.59066 5.09165L13.649 9.16665H4.34066C3.88232 9.16665 3.50732 9.54165 3.50732 9.99998C3.50732 10.4583 3.88232 10.8333 4.34066 10.8333Z" fill="#D90429"/>
</svg>
