<svg width="101" height="16" viewBox="0 0 101 16" fill="none" xmlns="http://www.w3.org/2000/svg">
<path d="M0.66 15V0.999999H3.34L9.3 10.88H7.88L13.74 0.999999H16.4L16.44 15H13.4L13.38 5.66H13.94L9.26 13.52H7.8L3.02 5.66H3.7V15H0.66ZM24.8816 15.16C23.6549 15.16 22.5749 14.92 21.6416 14.44C20.7216 13.96 20.0082 13.3067 19.5016 12.48C18.9949 11.64 18.7416 10.6867 18.7416 9.62C18.7416 8.54 18.9882 7.58667 19.4816 6.76C19.9882 5.92 20.6749 5.26667 21.5416 4.8C22.4082 4.32 23.3882 4.08 24.4816 4.08C25.5349 4.08 26.4816 4.30667 27.3216 4.76C28.1749 5.2 28.8482 5.84 29.3416 6.68C29.8349 7.50667 30.0816 8.5 30.0816 9.66C30.0816 9.78 30.0749 9.92 30.0616 10.08C30.0482 10.2267 30.0349 10.3667 30.0216 10.5H21.2816V8.68H28.3816L27.1816 9.22C27.1816 8.66 27.0682 8.17333 26.8416 7.76C26.6149 7.34667 26.3016 7.02667 25.9016 6.8C25.5016 6.56 25.0349 6.44 24.5016 6.44C23.9682 6.44 23.4949 6.56 23.0816 6.8C22.6816 7.02667 22.3682 7.35333 22.1416 7.78C21.9149 8.19333 21.8016 8.68667 21.8016 9.26V9.74C21.8016 10.3267 21.9282 10.8467 22.1816 11.3C22.4482 11.74 22.8149 12.08 23.2816 12.32C23.7616 12.5467 24.3216 12.66 24.9616 12.66C25.5349 12.66 26.0349 12.5733 26.4616 12.4C26.9016 12.2267 27.3016 11.9667 27.6616 11.62L29.3216 13.42C28.8282 13.98 28.2082 14.4133 27.4616 14.72C26.7149 15.0133 25.8549 15.16 24.8816 15.16ZM36.6988 15.16C35.8054 15.16 35.0054 14.9867 34.2988 14.64C33.6054 14.2933 33.0654 13.7667 32.6788 13.06C32.2921 12.34 32.0988 11.4267 32.0988 10.32V4.24H35.2188V9.86C35.2188 10.7533 35.4054 11.4133 35.7788 11.84C36.1654 12.2533 36.7054 12.46 37.3988 12.46C37.8788 12.46 38.3054 12.36 38.6788 12.16C39.0521 11.9467 39.3454 11.6267 39.5588 11.2C39.7721 10.76 39.8788 10.2133 39.8788 9.56V4.24H42.9988V15H40.0388V12.04L40.5788 12.9C40.2188 13.6467 39.6854 14.2133 38.9788 14.6C38.2854 14.9733 37.5254 15.16 36.6988 15.16Z" fill="#D90429"/>
<path d="M52.8092 15.24C51.7292 15.24 50.7226 15.0667 49.7892 14.72C48.8692 14.36 48.0692 13.8533 47.3892 13.2C46.7092 12.5467 46.1759 11.78 45.7892 10.9C45.4159 10.02 45.2292 9.05333 45.2292 8C45.2292 6.94667 45.4159 5.98 45.7892 5.1C46.1759 4.22 46.7092 3.45333 47.3892 2.8C48.0826 2.14667 48.8892 1.64667 49.8092 1.3C50.7292 0.939999 51.7359 0.76 52.8292 0.76C54.0426 0.76 55.1359 0.973333 56.1092 1.4C57.0959 1.81333 57.9226 2.42667 58.5892 3.24L56.5092 5.16C56.0292 4.61333 55.4959 4.20667 54.9092 3.94C54.3226 3.66 53.6826 3.52 52.9892 3.52C52.3359 3.52 51.7359 3.62667 51.1892 3.84C50.6426 4.05333 50.1692 4.36 49.7692 4.76C49.3692 5.16 49.0559 5.63333 48.8292 6.18C48.6159 6.72667 48.5092 7.33333 48.5092 8C48.5092 8.66667 48.6159 9.27333 48.8292 9.82C49.0559 10.3667 49.3692 10.84 49.7692 11.24C50.1692 11.64 50.6426 11.9467 51.1892 12.16C51.7359 12.3733 52.3359 12.48 52.9892 12.48C53.6826 12.48 54.3226 12.3467 54.9092 12.08C55.4959 11.8 56.0292 11.38 56.5092 10.82L58.5892 12.74C57.9226 13.5533 57.0959 14.1733 56.1092 14.6C55.1359 15.0267 54.0359 15.24 52.8092 15.24ZM67.0986 15V12.9L66.8986 12.44V8.68C66.8986 8.01333 66.6919 7.49333 66.2786 7.12C65.8786 6.74667 65.2586 6.56 64.4186 6.56C63.8453 6.56 63.2786 6.65333 62.7186 6.84C62.1719 7.01333 61.7053 7.25333 61.3186 7.56L60.1986 5.38C60.7853 4.96667 61.4919 4.64667 62.3186 4.42C63.1453 4.19333 63.9853 4.08 64.8386 4.08C66.4786 4.08 67.7519 4.46667 68.6586 5.24C69.5653 6.01333 70.0186 7.22 70.0186 8.86V15H67.0986ZM63.8186 15.16C62.9786 15.16 62.2586 15.02 61.6586 14.74C61.0586 14.4467 60.5986 14.0533 60.2786 13.56C59.9586 13.0667 59.7986 12.5133 59.7986 11.9C59.7986 11.26 59.9519 10.7 60.2586 10.22C60.5786 9.74 61.0786 9.36667 61.7586 9.1C62.4386 8.82 63.3253 8.68 64.4186 8.68H67.2786V10.5H64.7586C64.0253 10.5 63.5186 10.62 63.2386 10.86C62.9719 11.1 62.8386 11.4 62.8386 11.76C62.8386 12.16 62.9919 12.48 63.2986 12.72C63.6186 12.9467 64.0519 13.06 64.5986 13.06C65.1186 13.06 65.5853 12.94 65.9986 12.7C66.4119 12.4467 66.7119 12.08 66.8986 11.6L67.3786 13.04C67.1519 13.7333 66.7386 14.26 66.1386 14.62C65.5386 14.98 64.7653 15.16 63.8186 15.16ZM72.8423 15V4.24H75.8223V7.28L75.4023 6.4C75.7223 5.64 76.2357 5.06667 76.9423 4.68C77.649 4.28 78.509 4.08 79.5223 4.08V6.96C79.389 6.94667 79.269 6.94 79.1623 6.94C79.0557 6.92667 78.9423 6.92 78.8223 6.92C77.969 6.92 77.2757 7.16667 76.7423 7.66C76.2223 8.14 75.9623 8.89333 75.9623 9.92V15H72.8423ZM81.397 15V4.24H84.377V7.28L83.957 6.4C84.277 5.64 84.7904 5.06667 85.497 4.68C86.2037 4.28 87.0637 4.08 88.077 4.08V6.96C87.9437 6.94667 87.8237 6.94 87.717 6.94C87.6104 6.92667 87.497 6.92 87.377 6.92C86.5237 6.92 85.8304 7.16667 85.297 7.66C84.777 8.14 84.517 8.89333 84.517 9.92V15H81.397ZM94.9741 15.16C93.8274 15.16 92.8074 14.92 91.9141 14.44C91.0341 13.96 90.3341 13.3067 89.8141 12.48C89.3074 11.64 89.0541 10.6867 89.0541 9.62C89.0541 8.54 89.3074 7.58667 89.8141 6.76C90.3341 5.92 91.0341 5.26667 91.9141 4.8C92.8074 4.32 93.8274 4.08 94.9741 4.08C96.1074 4.08 97.1207 4.32 98.0141 4.8C98.9074 5.26667 99.6074 5.91333 100.114 6.74C100.621 7.56667 100.874 8.52667 100.874 9.62C100.874 10.6867 100.621 11.64 100.114 12.48C99.6074 13.3067 98.9074 13.96 98.0141 14.44C97.1207 14.92 96.1074 15.16 94.9741 15.16ZM94.9741 12.6C95.4941 12.6 95.9607 12.48 96.3741 12.24C96.7874 12 97.1141 11.66 97.3541 11.22C97.5941 10.7667 97.7141 10.2333 97.7141 9.62C97.7141 8.99333 97.5941 8.46 97.3541 8.02C97.1141 7.58 96.7874 7.24 96.3741 7C95.9607 6.76 95.4941 6.64 94.9741 6.64C94.4541 6.64 93.9874 6.76 93.5741 7C93.1607 7.24 92.8274 7.58 92.5741 8.02C92.3341 8.46 92.2141 8.99333 92.2141 9.62C92.2141 10.2333 92.3341 10.7667 92.5741 11.22C92.8274 11.66 93.1607 12 93.5741 12.24C93.9874 12.48 94.4541 12.6 94.9741 12.6Z" fill="#1E1E1E"/>
</svg>
